<?xml version="1.0" encoding="UTF-8"?>
<svg width="354px" height="101px" viewBox="0 0 354 101" version="1.1" xmlns="http://www.w3.org/2000/svg" xmlns:xlink="http://www.w3.org/1999/xlink">
    <!-- Generator: Sketch 56.3 (81716) - https://sketch.com -->
    <title>Group 2</title>
    <desc>Created with Sketch.</desc>
    <g id="Page-1" stroke="none" stroke-width="1" fill="none" fill-rule="evenodd">
        <g id="o" transform="translate(-40.000000, -112.000000)">
            <g id="Group-2" transform="translate(40.000000, 112.000000)">
                <path d="M184.837647,75 C176.734118,75 168.92,72.3491124 164,67.8994083 L169.305882,59.4733728 C172.682353,62.5976331 179.628235,65.7218935 185.416471,65.7218935 C190.722353,65.7218935 193.230588,63.6390533 193.230588,60.7988166 C193.230588,53.2248521 165.543529,59.3786982 165.543529,41.3905325 C165.543529,33.7218935 172.392941,27 184.644706,27 C192.555294,27 198.825882,29.6508876 203.456471,33.2485207 L198.536471,41.4852071 C195.738824,38.5502959 190.432941,36.183432 184.741176,36.183432 C180.303529,36.183432 177.409412,38.1715976 177.409412,40.7278107 C177.409412,47.5443787 205,41.8639053 205,60.3254438 C205,68.6568047 197.764706,75 184.837647,75 Z M235.121951,75 C221.378049,75 211,65.6272189 211,50.9526627 C211,37.6982249 220.630081,27 234.373984,27 C247.837398,27 257,37.2248521 257,52.183432 L257,54.8343195 L223.434959,54.8343195 C224.182927,60.6094675 228.764228,65.4378698 236.430894,65.4378698 C240.264228,65.4378698 245.593496,63.7337278 248.49187,60.8934911 L253.727642,68.6568047 C249.239837,72.8224852 242.134146,75 235.121951,75 Z M246,47 C245.722689,42.271028 242.764706,36 235,36 C227.697479,36 224.554622,42.0654206 224,47 L246,47 Z M287.121951,75 C273.378049,75 263,65.6272189 263,50.9526627 C263,37.6982249 272.630081,27 286.373984,27 C299.837398,27 309,37.2248521 309,52.183432 L309,54.8343195 L275.434959,54.8343195 C276.182927,60.6094675 280.764228,65.4378698 288.430894,65.4378698 C292.264228,65.4378698 297.593496,63.7337278 300.49187,60.8934911 L305.727642,68.6568047 C301.239837,72.8224852 294.134146,75 287.121951,75 Z M297,47 C296.722689,42.271028 293.764706,36 286,36 C278.697479,36 275.554622,42.0654206 275,47 L297,47 Z M354,74 L317,74 L317,64.952381 L337.472081,38.5714286 L317,38.5714286 L317,28 L353.624365,28 L353.624365,36.7619048 L332.870558,63.4285714 L354,63.4285714 L354,74 Z" id="seez" fill="#FFFFFF" fill-rule="nonzero"></path>
                <g id="seez">
                    <path d="M71,101 C104.137085,101 131,76.5105697 131,46.3013265 C131,16.0920833 103.852725,19.0816075 70.7156398,19.0816075 C37.5785548,19.0816075 11,16.0920833 11,46.3013265 C11,76.5105697 37.862915,101 71,101 Z" id="Oval" fill="#FFFFFF"></path>
                    <circle id="Oval" fill="#FFFFFF" cx="112" cy="29" r="29"></circle>
                    <circle id="Oval-Copy" fill="#FFFFFF" cx="29" cy="29" r="29"></circle>
                    <g id="eye-right" transform="translate(98.000000, 9.000000)">
                        <circle id="Oval" fill="#090909" cx="15" cy="15" r="15"></circle>
                        <circle id="blink-right" fill="#FFFFFF" cx="20.7954545" cy="9.20454545" r="4.43181818"></circle>
                    </g>
                    <g id="eye-left" transform="translate(13.000000, 11.000000)">
                        <circle id="Oval" fill="#090909" cx="15" cy="15" r="15"></circle>
                        <circle id="Oval-Copy-3" fill="#090909" cx="15" cy="15" r="15"></circle>
                        <circle id="blink-left" fill="#FFFFFF" cx="20.7954545" cy="9.20454545" r="4.43181818"></circle>
                    </g>
                    <path d="M74.7903272,69.5621827 L79.4127866,72.5503302 C81.7318487,74.0494672 82.3965294,77.1447292 80.8973923,79.4637914 C80.7790865,79.6468024 80.6489426,79.8218833 80.5077934,79.9879141 L60.2672239,103.796444 L69.5036509,79.6660659 C69.8615183,78.7311292 69.4730058,77.675616 68.5943974,77.1958003 L62.1971473,73.7022063 C60.7430024,72.9080851 60.2079474,71.0855053 61.0020686,69.6313604 C61.0909342,69.4686353 61.1946937,69.3144988 61.3120154,69.1709293 L80.4686162,45.7285135 L73.9612871,67.3050766 C73.7040156,68.1581198 74.042064,69.0784746 74.7903272,69.5621827 Z" id="Path" fill="#000000" fill-rule="nonzero" transform="translate(71.612391, 74.762479) scale(1, -1) rotate(84.000000) translate(-71.612391, -74.762479) "></path>
                    <ellipse id="Oval" fill="#FFFFFF" cx="123.5" cy="57.5" rx="10.5" ry="11.5"></ellipse>
                    <ellipse id="Oval-Copy-2" fill="#FFFFFF" cx="19.5" cy="57.5" rx="10.5" ry="11.5"></ellipse>
                </g>
            </g>
        </g>
    </g>
</svg>