<?xml version="1.0" encoding="UTF-8"?>
<svg width="455px" height="101px" viewBox="0 0 455 101" version="1.1" xmlns="http://www.w3.org/2000/svg" xmlns:xlink="http://www.w3.org/1999/xlink">
    <!-- Generator: Sketch 56.3 (81716) - https://sketch.com -->
    <title>Group 2</title>
    <desc>Created with Sketch.</desc>
    <g id="Page-1" stroke="none" stroke-width="1" fill="none" fill-rule="evenodd">
        <g id="o" transform="translate(-40.000000, -112.000000)">
            <g id="Group-2" transform="translate(40.000000, 112.000000)">
                <path d="M198.002353,87 C185.945882,87 174.32,82.9684418 167,76.2011834 L174.894118,63.3865878 C179.917647,68.1380671 190.251765,72.8895464 198.863529,72.8895464 C206.757647,72.8895464 210.489412,69.7218935 210.489412,65.4023669 C210.489412,53.8836292 169.296471,63.2426036 169.296471,35.8856016 C169.296471,24.2228797 179.487059,14 197.715294,14 C209.484706,14 218.814118,18.0315582 225.703529,23.5029586 L218.383529,36.0295858 C214.221176,31.566075 206.327059,27.9664694 197.858824,27.9664694 C191.256471,27.9664694 186.950588,30.9901381 186.950588,34.877712 C186.950588,45.2445759 228,36.6055227 228,64.6824458 C228,77.3530572 217.235294,87 198.002353,87 Z M274.231707,87 C253.018293,87 237,72.7455621 237,50.4280079 C237,30.270217 251.863821,14 273.077236,14 C293.857724,14 308,29.5502959 308,52.2998028 L308,56.3313609 L256.193089,56.3313609 C257.347561,65.1143984 264.418699,72.4575937 276.252033,72.4575937 C282.168699,72.4575937 290.394309,69.8658777 294.867886,65.5463511 L302.949187,77.3530572 C296.022358,83.6883629 285.054878,87 274.231707,87 Z M291,44 C290.571429,37.1214953 286,28 274,28 C262.714286,28 257.857143,36.8224299 257,44 L291,44 Z M354.231707,87 C333.018293,87 317,72.7455621 317,50.4280079 C317,30.270217 331.863821,14 353.077236,14 C373.857724,14 388,29.5502959 388,52.2998028 L388,56.3313609 L336.193089,56.3313609 C337.347561,65.1143984 344.418699,72.4575937 356.252033,72.4575937 C362.168699,72.4575937 370.394309,69.8658777 374.867886,65.5463511 L382.949187,77.3530572 C376.022358,83.6883629 365.054878,87 354.231707,87 Z M370,44 C369.571429,37.1214953 365,28 353,28 C341.714286,28 336.857143,36.8224299 336,44 L370,44 Z M455,86 L399,86 L399,72.2318841 L429.984772,32.0869565 L399,32.0869565 L399,16 L454.431472,16 L454.431472,29.3333333 L423.020305,69.9130435 L455,69.9130435 L455,86 Z" id="seez" fill="#FFFFFF" fill-rule="nonzero"></path>
                <g id="seez">
                    <path d="M71,101 C104.137085,101 131,76.5105697 131,46.3013265 C131,16.0920833 103.852725,19.0816075 70.7156398,19.0816075 C37.5785548,19.0816075 11,16.0920833 11,46.3013265 C11,76.5105697 37.862915,101 71,101 Z" id="Oval" fill="#FFFFFF"></path>
                    <circle id="Oval" fill="#FFFFFF" cx="112" cy="29" r="29"></circle>
                    <circle id="Oval-Copy" fill="#FFFFFF" cx="29" cy="29" r="29"></circle>
                    <g id="eye-right" transform="translate(98.000000, 9.000000)">
                        <circle id="Oval" fill="#090909" cx="15" cy="15" r="15"></circle>
                        <circle id="Oval" fill="#FFFFFF" cx="20.7954545" cy="9.20454545" r="4.43181818"></circle>
                    </g>
                    <g id="eye-left" transform="translate(13.000000, 11.000000)">
                        <circle id="Oval" fill="#090909" cx="15" cy="15" r="15"></circle>
                        <circle id="Oval" fill="#FFFFFF" cx="20.7954545" cy="9.20454545" r="4.43181818"></circle>
                    </g>
                    <path d="M74.7903272,69.5621827 L79.4127866,72.5503302 C81.7318487,74.0494672 82.3965294,77.1447292 80.8973923,79.4637914 C80.7790865,79.6468024 80.6489426,79.8218833 80.5077934,79.9879141 L60.2672239,103.796444 L69.5036509,79.6660659 C69.8615183,78.7311292 69.4730058,77.675616 68.5943974,77.1958003 L62.1971473,73.7022063 C60.7430024,72.9080851 60.2079474,71.0855053 61.0020686,69.6313604 C61.0909342,69.4686353 61.1946937,69.3144988 61.3120154,69.1709293 L80.4686162,45.7285135 L73.9612871,67.3050766 C73.7040156,68.1581198 74.042064,69.0784746 74.7903272,69.5621827 Z" id="Path" fill="#000000" fill-rule="nonzero" transform="translate(71.612391, 74.762479) scale(1, -1) rotate(84.000000) translate(-71.612391, -74.762479) "></path>
                    <ellipse id="Oval" fill="#FFFFFF" cx="123.5" cy="57.5" rx="10.5" ry="11.5"></ellipse>
                    <ellipse id="Oval-Copy-2" fill="#FFFFFF" cx="19.5" cy="57.5" rx="10.5" ry="11.5"></ellipse>
                </g>
            </g>
        </g>
    </g>
</svg>